<svg width="207" height="36" viewBox="0 0 207 36" fill="none" xmlns="http://www.w3.org/2000/svg">
<g clip-path="url(#clip0_26_19552)">
<path d="M141.621 5.10963H142.302C150.096 5.10963 157.894 5.10963 165.695 5.10963C165.893 5.09398 166.093 5.1285 166.274 5.21002C166.456 5.29154 166.614 5.41742 166.734 5.57602C170.004 9.54554 171.979 14.1473 173.123 19.1273C174.199 24.1039 174.677 29.1906 174.547 34.2799V35.9537H162.154V35.2956C162.21 30.8467 161.897 26.401 161.219 22.0034C160.262 16.36 158.417 11.0795 154.799 6.52954C154.57 6.24452 154.331 5.96469 153.993 5.5553V35.9693H141.621V5.10963Z" fill="#151515"/>
<path d="M92.4446 35.9999H70.1594C66.4841 35.9999 64.2645 34.3883 63.1104 30.8903C62.0708 27.8121 62.0084 24.6407 62.1539 21.4433C62.3983 16.0642 63.4379 10.7784 64.6179 5.52894C64.6959 5.18692 64.8363 5.104 65.1378 5.104C72.6026 5.104 80.0622 5.104 87.527 5.104C90.8175 5.104 93.006 6.88666 94.0716 10.2343C94.7947 12.7386 95.1158 15.3411 95.0229 17.9453C94.997 22.8425 94.2016 27.6463 93.2087 32.419C92.9904 33.6109 92.7149 34.7821 92.4446 35.9999ZM77.1355 5.56521C77.0887 5.72068 77.0575 5.81396 77.0367 5.90723C76.3454 9.64356 75.5656 13.3643 74.9938 17.1214C74.3668 20.7453 74.3054 24.4441 74.8119 28.0868C75.0281 29.9298 75.657 31.7008 76.6521 33.2689C77.0186 33.8659 77.5078 34.3787 78.0875 34.7735C78.6672 35.1683 79.3243 35.4361 80.0154 35.5594C80.0695 35.419 80.1146 35.2754 80.1505 35.1293C80.8211 31.5277 81.5801 27.9831 82.1519 24.3556C82.7632 20.8085 82.856 17.1919 82.4274 13.6183C82.2338 11.5825 81.5701 9.61907 80.4884 7.88163C80.1235 7.28293 79.6364 6.76736 79.0588 6.36831C78.4812 5.96927 77.826 5.69566 77.1355 5.56521Z" fill="#151515"/>
<path d="M177.042 5.10946H199.8C201.346 5.02937 202.881 5.41585 204.203 6.21844C204.972 6.737 205.606 7.4303 206.054 8.24118C206.501 9.05207 206.749 9.95733 206.776 10.8824C206.969 13.3957 206.937 15.9194 207 18.4846H194.524V17.7591C194.482 15.3131 194.461 12.8671 194.394 10.4212C194.359 9.85977 194.256 9.30466 194.087 8.76805C193.437 6.51382 191.81 5.41521 189.409 5.60177C189.385 5.7285 189.369 5.85658 189.362 5.98525C189.362 8.79915 189.362 11.6182 189.362 14.4321C189.371 15.0908 189.446 15.747 189.585 16.391C190.079 18.7488 191.514 20.0807 193.916 20.2517C195.777 20.3812 197.653 20.3139 199.519 20.3812C200.452 20.3879 201.382 20.4868 202.295 20.6766C204.894 21.2985 206.454 23.1433 206.776 25.8587C206.86 26.6696 206.9 27.4844 206.896 28.2995C206.896 30.844 206.896 33.3832 206.896 35.9639C206.667 35.9639 206.48 35.9639 206.293 35.9639H183.42C181.611 35.9639 179.937 35.596 178.627 34.2279C177.641 33.2068 177.058 31.8654 176.985 30.4501C176.834 27.859 176.834 25.268 176.771 22.6147H189.247C189.247 22.8635 189.247 23.0915 189.247 23.3195C189.279 25.8639 189.299 28.4083 189.362 30.9476C189.386 31.4764 189.482 31.9994 189.648 32.5022C190.266 34.6217 192.065 35.7255 194.467 35.4768C194.483 35.3686 194.493 35.2596 194.498 35.1503C194.498 32.3157 194.539 29.4811 194.472 26.6464C194.445 25.6383 194.27 24.6396 193.952 23.6822C193.24 21.6094 191.509 20.8372 189.481 20.7284C187.303 20.6144 185.12 20.687 182.937 20.6041C182.16 20.5715 181.391 20.4284 180.655 20.1791C179.598 19.8477 178.675 19.1884 178.02 18.2972C177.365 17.406 177.014 16.3296 177.016 15.225C176.927 11.9188 177.042 8.53486 177.042 5.10946Z" fill="#151515"/>
<path d="M33.0431 5.1097V14.8677H20.6763V5.70046L20.5463 5.64346C20.12 6.10467 19.6834 6.55551 19.2727 7.03227C16.1277 10.6598 13.7989 14.7588 12.7956 19.5057C11.9327 23.5633 12.2238 27.5017 14.2095 31.2173C15.2492 33.1761 16.7151 34.7256 18.966 35.3216C19.4858 35.4563 20.0057 35.4926 20.6503 35.591V26.1388H33.0119V35.9849H32.3673C24.5958 35.9849 16.8243 35.9382 9.04761 35.9849C5.64271 35.9849 3.36065 34.4302 1.84274 31.549C0.412652 28.7395 -0.204732 25.5886 0.0597111 22.4491C0.418395 16.4378 2.97077 11.3801 6.84352 6.90272C7.36336 6.30159 7.82601 5.52427 8.49659 5.20816C9.16718 4.89205 9.98331 5.12006 10.7423 5.12006H33.0431V5.1097Z" fill="#151515"/>
<path d="M36.2773 5.14062H48.6546V17.5259L48.8677 17.5829C48.956 17.419 49.0241 17.245 49.0704 17.0647C49.5972 13.1988 50.117 9.33297 50.6299 5.4671C50.6472 5.36366 50.6715 5.2615 50.7027 5.16135H61.3229C60.7199 9.43662 60.1169 13.6911 59.5087 17.9923H48.6442V35.9692H36.2773V5.14062Z" fill="#151515"/>
<path fill-rule="evenodd" clip-rule="evenodd" d="M117.926 0L111.699 5.14586H124.097L117.926 0ZM108.663 5.14062H96.4727C97.7099 15.4254 98.9471 25.6999 100.184 35.964H112.286C112.153 34.7695 112.023 33.5854 111.893 32.4013C111.764 31.2172 111.634 30.033 111.501 28.8385H124.398C124.147 30.9073 123.903 32.9452 123.657 35.0023C123.618 35.3257 123.579 35.6497 123.54 35.9743H135.621C136.851 25.7137 138.089 15.4358 139.333 5.14062H127.231C127.11 6.16923 126.99 7.18456 126.869 8.19989C126.839 8.45314 126.809 8.7064 126.779 8.95986C126.29 13.0848 125.798 17.2098 125.303 21.3348C125.039 23.5286 124.772 25.7241 124.502 27.9213C124.459 28.0774 124.397 28.2272 124.315 28.367L124.107 28.31V5.18208H111.704V28.0508C111.711 28.1076 111.711 28.1651 111.704 28.2219C111.688 28.2556 111.665 28.2856 111.636 28.31C111.619 28.3163 111.601 28.3163 111.584 28.31C111.532 28.3168 111.48 28.3168 111.428 28.31C110.506 20.6024 109.585 12.8793 108.663 5.14062Z" fill="url(#paint0_linear_26_19552)"/>
<mask id="mask0_26_19552" style="mask-type:alpha" maskUnits="userSpaceOnUse" x="96" y="0" width="44" height="36">
<path fill-rule="evenodd" clip-rule="evenodd" d="M117.926 0L111.699 5.14586H124.097L117.926 0ZM108.663 5.14062H96.4727C97.7099 15.4254 98.9471 25.6999 100.184 35.964H112.286C112.153 34.7695 112.023 33.5854 111.893 32.4013C111.764 31.2172 111.634 30.033 111.501 28.8385H124.398C124.147 30.9073 123.903 32.9452 123.657 35.0023C123.618 35.3257 123.579 35.6497 123.54 35.9743H135.621C136.851 25.7137 138.089 15.4358 139.333 5.14062H127.231C127.11 6.16923 126.99 7.18456 126.869 8.19989C126.839 8.45314 126.809 8.7064 126.779 8.95986C126.29 13.0848 125.798 17.2098 125.303 21.3348C125.039 23.5286 124.772 25.7241 124.502 27.9213C124.459 28.0774 124.397 28.2272 124.315 28.367L124.107 28.31V5.18208H111.704V28.0508C111.711 28.1076 111.711 28.1651 111.704 28.2219C111.688 28.2556 111.665 28.2856 111.636 28.31C111.619 28.3163 111.601 28.3163 111.584 28.31C111.532 28.3168 111.48 28.3168 111.428 28.31C110.506 20.6024 109.585 12.8793 108.663 5.14062Z" fill="url(#paint1_linear_26_19552)"/>
</mask>
<g mask="url(#mask0_26_19552)">
<g filter="url(#filter0_f_26_19552)">
<path d="M141 13L97 16.9286L99 24L141 18.1071V13Z" fill="white" fill-opacity="0.78"/>
</g>
</g>
<path d="M122.688 23.3938V18.0049L118 15.3105L113.312 18.0049V23.3938L118 26.0881L122.688 23.3938Z" fill="#9F30AD"/>
<path d="M120.738 22.2731V19.1256L118 17.5518L115.262 19.1256V22.2731L118 23.8469L120.738 22.2731Z" fill="#C13AD8"/>
<path d="M118 17.5517V15.3105L122.688 18.0049L120.738 19.1256L118 17.5517Z" fill="#B138C6"/>
<path d="M120.738 22.2731V19.1256L122.688 18.0049V23.3938L120.738 22.2731Z" fill="#9733AF"/>
<path d="M118 23.8471V26.0882L122.688 23.3939L120.738 22.2732L118 23.8471Z" fill="#862F9B"/>
<path d="M115.262 22.2732L113.312 23.3939L118 26.0882V23.8471L115.262 22.2732Z" fill="#9733AF"/>
<path d="M114.182 18.0049L116.131 19.1256V22.2731L114.182 23.3938V18.0049Z" fill="#B138C6"/>
<path d="M118 17.5517L115.262 19.1256L113.312 18.0049L118 15.3105V17.5517Z" fill="#CA44EA"/>
<path d="M122.688 18.0049C121.999 18.3558 121.31 18.7065 120.62 19.0572L118.093 17.6047L118.001 15.3105L117.908 17.6047L115.381 19.0572C114.691 18.7065 114.002 18.3558 113.312 18.0049L115.262 19.1256V20.2439C115.299 19.8943 115.335 19.5447 115.372 19.1951C116.248 18.7208 117.124 18.2465 118.001 17.7723C118.877 18.2465 119.753 18.7208 120.629 19.1951C120.665 19.5447 120.702 19.8943 120.739 20.2439V19.1256L120.765 19.1105L122.688 18.0049Z" fill="#FDB4FF"/>
<path d="M118 15C117.946 15 117.892 15.0137 117.844 15.0415L113.156 17.7358C113.059 17.7915 113 17.894 113 18.0049V23.3938C113 23.5048 113.059 23.6072 113.156 23.6627L117.844 26.3573C117.892 26.385 117.946 26.3987 118 26.3987C118.054 26.3987 118.108 26.385 118.156 26.3573L122.844 23.6627C122.941 23.6072 123 23.5048 123 23.3938V18.0049C123 17.894 122.941 17.7915 122.844 17.7358L118.156 15.0415C118.108 15.0137 118.054 15 118 15ZM118 15.3106L122.688 18.0049V23.3938L118 26.0881L113.312 23.3938V18.0049L118 15.3106Z" fill="#DEAF34"/>
<g filter="url(#filter1_f_26_19552)">
<path d="M121.676 13.2753L123.869 16.3437L127.627 16.6757L124.558 18.8694L124.226 22.6267L122.033 19.5583L118.275 19.2263L121.344 17.0325L121.676 13.2753Z" fill="white"/>
</g>
</g>
<defs>
<filter id="filter0_f_26_19552" x="92" y="8" width="54" height="21" filterUnits="userSpaceOnUse" color-interpolation-filters="sRGB">
<feFlood flood-opacity="0" result="BackgroundImageFix"/>
<feBlend mode="normal" in="SourceGraphic" in2="BackgroundImageFix" result="shape"/>
<feGaussianBlur stdDeviation="2.5" result="effect1_foregroundBlur_26_19552"/>
</filter>
<filter id="filter1_f_26_19552" x="117.075" y="12.0753" width="11.752" height="11.7514" filterUnits="userSpaceOnUse" color-interpolation-filters="sRGB">
<feFlood flood-opacity="0" result="BackgroundImageFix"/>
<feBlend mode="normal" in="SourceGraphic" in2="BackgroundImageFix" result="shape"/>
<feGaussianBlur stdDeviation="0.6" result="effect1_foregroundBlur_26_19552"/>
</filter>
<linearGradient id="paint0_linear_26_19552" x1="108.5" y1="36" x2="109.175" y2="17.302" gradientUnits="userSpaceOnUse">
<stop stop-color="#DDA411"/>
<stop offset="1" stop-color="#FFDA7C"/>
</linearGradient>
<linearGradient id="paint1_linear_26_19552" x1="108.5" y1="36" x2="109.175" y2="17.302" gradientUnits="userSpaceOnUse">
<stop stop-color="#DDA411"/>
<stop offset="1" stop-color="#FFDA7C"/>
</linearGradient>
<clipPath id="clip0_26_19552">
<rect width="207" height="36" fill="white"/>
</clipPath>
</defs>
</svg>
