<svg width="182" height="35" viewBox="0 0 182 35" fill="none" xmlns="http://www.w3.org/2000/svg">
<g clip-path="url(#clip0_26_19543)">
<path d="M62.6069 19.2526V15.536H72.1967L75.3933 9.69561H62.6069V5.97902H77.517L81.2336 0.138672H56.853V25.6238H66.8982L70.039 19.2526H62.6069Z" fill="#151515"/>
<path d="M106.72 5.97902L109.905 0.138672H93.3629C90.7258 0.138672 89.0481 0.635112 87.8494 1.95371C86.6506 3.2723 85.9314 5.19026 85.9314 7.82745C85.9314 10.4646 86.5308 12.5025 87.8494 13.7012C89.0481 15.0198 91.0859 15.6191 93.6032 15.6191H101.275C101.874 15.6191 102.354 15.8589 102.714 16.0986C103.073 16.4583 103.193 16.9377 103.193 17.5371C103.193 18.1365 103.073 18.616 102.714 18.9756C102.354 19.3352 101.874 19.4551 101.275 19.4551H75.3941L72.2085 25.6238H101.275C103.912 25.6238 105.83 24.8493 107.029 23.5307C108.228 22.2121 108.947 20.2942 108.947 17.657C108.947 15.0198 108.348 12.982 107.029 11.7832C105.83 10.4646 103.792 9.86528 101.275 9.86528H93.6032C93.0039 9.86528 92.5244 9.62553 92.1648 9.38579C91.8051 9.02617 91.6853 8.54668 91.6853 7.94732C91.6853 7.34796 91.8051 6.86847 92.1648 6.50885C92.5244 6.14924 93.0039 6.02936 93.6032 6.02936L106.72 5.97902Z" fill="#151515"/>
<path d="M3.71659 5.979H10.0879V25.6238L15.9282 22.4382V5.979L26.0161 5.97902V0.138672H0L3.71659 5.979Z" fill="#151515"/>
<path d="M46.4577 15.005C48.4955 13.8063 49.4216 11.3037 49.4216 7.82745C49.4216 5.19026 48.8223 3.15243 47.5037 1.95371C46.305 0.635112 44.2671 0.138672 41.7498 0.138672H31.3209V5.97902H41.7498C42.3492 5.97902 42.8287 6.14924 43.1883 6.38898C43.5479 6.62873 43.6678 7.22809 43.6678 7.82745C43.6678 8.42681 43.5372 8.73663 43.1776 9.09625C42.818 9.45587 42.3385 9.69561 41.7391 9.69561H26.5474V25.6238L32.3877 22.4382V16.0669H39.29L44.5994 25.6238H51.5016L45.6612 15.536L46.4577 15.005Z" fill="#151515"/>
<path d="M126.63 0.138672C122.431 0.138672 119.312 1.22059 117.272 3.26421C115.233 5.30783 114.153 8.55359 114.153 12.8813C114.153 17.2089 115.233 20.4547 117.272 22.4983C119.312 24.5419 122.431 25.6238 126.63 25.6238C130.829 25.6238 133.948 24.5419 135.988 22.4983C138.027 20.4547 139.107 17.2089 139.107 12.8813C139.107 8.55359 138.027 5.30783 135.988 3.26421C133.948 1.22059 130.709 0.138672 126.63 0.138672ZM131.549 17.9302C130.469 19.1323 128.789 19.7334 126.51 19.7334C124.35 19.7334 122.671 19.1323 121.471 17.9302C120.391 16.7281 119.792 15.0451 119.792 12.8813C119.792 10.7174 120.391 8.91423 121.471 7.83231C122.671 6.63018 124.35 6.02911 126.51 6.02911C128.669 6.02911 130.349 6.63018 131.549 7.83231C132.629 9.03444 133.228 10.7174 133.228 12.8813C133.228 15.1653 132.749 16.8483 131.549 17.9302Z" fill="#151515"/>
<path d="M163.334 15.1397L164.173 14.6602C166.211 13.4614 167.29 11.3037 167.29 7.82745C167.29 5.19026 166.69 3.15243 165.372 1.95371C164.173 0.635112 162.135 0.138672 159.618 0.138672H143.354L146.54 5.97902L159.618 5.90949C160.642 5.90949 161.531 6.78425 161.536 7.80799C161.536 7.81446 161.536 7.82095 161.536 7.82745C161.536 8.42681 161.416 8.9063 161.056 9.26592C160.697 9.62553 160.217 9.74541 159.618 9.74541L144.416 9.69561V25.6238L150.256 22.4382V15.536H157.158L162.468 25.6238H169.37L163.334 15.1397Z" fill="#151515"/>
<path d="M182 29.8193C182 32.1364 180.122 34.0148 177.805 34.0148C175.488 34.0148 173.609 32.1364 173.609 29.8193C173.609 27.5022 175.488 25.6238 177.805 25.6238C180.122 25.6238 182 27.5022 182 29.8193Z" fill="#EC1A19"/>
</g>
<defs>
<clipPath id="clip0_26_19543">
<rect width="182" height="35" fill="white"/>
</clipPath>
</defs>
</svg>
